<?xml version="1.0" standalone="no"?><!DOCTYPE svg PUBLIC "-//W3C//DTD SVG 1.1//EN" "http://www.w3.org/Graphics/SVG/1.1/DTD/svg11.dtd"><svg t="1517970017919" class="icon" style="" viewBox="0 0 1024 1024" version="1.1" xmlns="http://www.w3.org/2000/svg" p-id="1541" xmlns:xlink="http://www.w3.org/1999/xlink" width="128" height="128"><defs><style type="text/css"></style></defs><path d="M126.49540267 616.8576h163.33755733v-52.05742933H173.09149867v-82.33506134H74.00106667v-35.30205866h99.090432v-39.82404267h39.82404266v39.82404267h194.55453867v-39.82404267h39.82404267v39.82404267h84.17006933v35.30205866h-84.17006933v82.33506134h-116.74146134V616.8576h162.90065067v132.120576h-162.90065067v54.74440533h185.51057067v35.28021334h-185.51057067v91.85962666H289.83296v-91.85962666H74.00106667v-35.28021334h215.83189333v-54.74440533H126.49540267V616.8576zM103.40488533 183.83940267h380.98261334V131.80381867H153.62730667V95.14734933h693.19611733v36.65646934H527.83786667v52.035584h380.960768v143.87336533h-42.51101867v-105.88433067H527.83786667v145.686528h-43.42852267v-145.686528H145.93774933v105.88433067H103.40488533V183.83940267z m62.89271467 466.944v64.24712533h123.51351467v-64.24712533H166.2976z m38.928384-382.795776h218.99946667v33.488896H205.225984V267.98762667z m0 78.27182933h218.99946667v33.030144H205.225984v-33.030144z m7.68955733 136.20565333v48.86801067h194.55453867v-48.86801067h-194.55453867z m240.713728 168.31829334h-123.076608v64.24712533h123.076608v-64.24712533zM783.47195733 877.90933333c35.913728 1.22333867 53.25892267-16.121856 52.035584-52.035584v-83.25256533H611.06858667c-7.82062933 64.24712533-33.77288533 126.98692267-77.83492267 188.219392-10.551296-8.73813333-23.50557867-17.78210133-38.90653867-27.15374933 32.571392-43.14453333 54.132736-83.53655467 64.684032-121.26344534 11.77463467-37.70504533 17.498112-89.587712 17.19227734-155.648v-190.95005866h301.79328v396.82048c0.589824 56.098816-27.76541867 84.78173867-85.065728 85.983232-11.18481067 0.30583467-23.37450667 0.589824-36.65646934 0.917504h-52.51618133a351.535104 351.535104 0 0 0-9.93962667-44.34602667c29.31643733 1.81316267 59.179008 2.70882133 89.653248 2.70882133z m21.71426134-609.92170666v33.488896h-216.2688V267.98762667h216.2688z m0 78.27182933v33.030144h-216.2688v-33.030144h216.2688z m-186.40622934 283.246592c0 27.76541867-0.89565867 53.10600533-2.70882133 76.02176h219.43637333v-97.27726933h-216.727552v21.25550933z m0-155.648v97.27726933h216.727552v-97.27726933h-216.727552z" p-id="1542"></path></svg>