<?xml version="1.0" standalone="no"?><!DOCTYPE svg PUBLIC "-//W3C//DTD SVG 1.1//EN" "http://www.w3.org/Graphics/SVG/1.1/DTD/svg11.dtd"><svg t="1518058712590" class="icon" style="" viewBox="0 0 1024 1024" version="1.1" xmlns="http://www.w3.org/2000/svg" p-id="4740" xmlns:xlink="http://www.w3.org/1999/xlink" width="128" height="128"><defs><style type="text/css"></style></defs><path d="M641.375 512c67.5-45 118.125-118.125 118.125-208.125C753.875 168.875 647 62 512 62S270.125 168.875 270.125 303.875c0 90 45 163.125 118.125 208.125-180 56.25-309.375 225-309.375 421.875 0 16.875 11.25 28.125 28.125 28.125s28.125-11.25 28.125-28.125c0-202.5 157.5-365.625 348.75-382.5-16.875 39.375-56.25 146.25-56.25 230.625 0 118.125 73.125 151.875 78.75 151.875h22.5c5.625 0 78.75-33.75 78.75-151.875 0-84.375-39.375-191.25-56.25-230.625 196.875 16.875 348.75 180 348.75 382.5 0 16.875 11.25 28.125 28.125 28.125s28.125-11.25 28.125-28.125C950.75 737 821.375 568.25 641.375 512zM326.375 303.875C326.375 202.625 410.75 118.25 512 118.25c101.25 0 185.625 84.375 185.625 185.625S613.25 495.125 512 495.125c-101.25 0-185.625-84.375-185.625-191.25zM512 877.625c-11.25-11.25-33.75-39.375-33.75-90 0-50.625 16.875-112.5 33.75-157.5 16.875 45 33.75 106.875 33.75 157.5 0 50.625-22.5 78.75-33.75 90z" p-id="4741"></path></svg>