<?xml version="1.0" standalone="no"?><!DOCTYPE svg PUBLIC "-//W3C//DTD SVG 1.1//EN" "http://www.w3.org/Graphics/SVG/1.1/DTD/svg11.dtd"><svg t="1518058052847" class="icon" style="" viewBox="0 0 1024 1024" version="1.1" xmlns="http://www.w3.org/2000/svg" p-id="2647" xmlns:xlink="http://www.w3.org/1999/xlink" width="128" height="128"><defs><style type="text/css"></style></defs><path d="M321.35425365 430.29443015l381.28800086 0c15.02639218 0 27.23635427-12.19482624 27.23635427-27.23402524 0-15.05433486-12.20879815-27.2491611-27.23635427-27.2491611L321.35425365 375.81124381c-15.05317091 0-27.23519033 12.19482624-27.23519032 27.2491611C294.11906333 418.10076786 306.30108274 430.29443015 321.35425365 430.29443015zM430.29384875 239.63762233l163.40881066 0c45.10944711 0 81.70440477-36.55653603 81.70440477-81.69159794 0-45.13389795-36.59495765-81.70440477-81.70440477-81.70440476l-163.40881066 0c-45.10711922 0-81.70440477 36.57050795-81.70440477 81.70440476C348.58944285 203.08108629 385.18672953 239.63762233 430.29384875 239.63762233zM430.29384875 130.71199915l163.40881066 0c15.02639218 0 27.23635427 12.18085433 27.23635428 27.23402524 0 15.03919901-12.20879815 27.23635427-27.23635428 27.23635428l-163.40881066 0c-15.05317091 0-27.23519033-12.19599019-27.23519033-27.23635428C403.05865842 142.89401856 415.24067783 130.71199915 430.29384875 130.71199915zM729.87860765 566.45640875c0-15.03919901-12.20879815-27.22121842-27.23635428-27.22121842L321.35425365 539.23519033c-15.05317091 0-27.23519033 12.18201941-27.23519032 27.22121842 0 15.05317091 12.18085433 27.23519033 27.23519032 27.23519032l381.28800086 0C717.66864555 593.69043399 729.87860765 581.50841458 729.87860765 566.45640875zM811.5818496 130.71199915l-81.70440477 0 0 54.47037952 81.70440477 0c15.05317091 0 27.23519033 12.18085433 27.23519033 27.23402524l0 653.63524267c0 15.04152803-12.18201941 27.23635427-27.23519033 27.23635427L212.41465742 893.28800085c-15.05433486 0-27.23402525-12.19482624-27.23402524-27.23635427l0-653.63524267c0-15.05317091 12.17969038-27.23402525 27.23402524-27.23402524l81.70440477 0 0-54.47037952-81.70440477 0c-45.10828317 0-81.70440477 36.58331477-81.70440476 81.70440476l0 653.63524267c0 45.13622585 36.5961216 81.70789774 81.70440476 81.70789774l599.16719104 0c45.10595413 0 81.70440477-36.57167189 81.70440477-81.70789774l0-653.63524267C893.28625437 167.29531392 856.68896768 130.71199915 811.5818496 130.71199915zM321.35425365 702.64283591c-15.05317091 0-27.23519033 12.18201941-27.23519032 27.23635428 0 15.04152803 12.18085433 27.22121842 27.23519032 27.22121842l217.88035414 0c15.05317091 0 27.23402525-12.17969038 27.23402524-27.22121842 0-15.05433486-12.18085433-27.23635427-27.23402524-27.23635428L321.35425365 702.64283591z" p-id="2648"></path></svg>