<?xml version="1.0" standalone="no"?><!DOCTYPE svg PUBLIC "-//W3C//DTD SVG 1.1//EN" "http://www.w3.org/Graphics/SVG/1.1/DTD/svg11.dtd"><svg t="1518058003565" class="icon" style="" viewBox="0 0 1024 1024" version="1.1" xmlns="http://www.w3.org/2000/svg" p-id="2133" xmlns:xlink="http://www.w3.org/1999/xlink" width="128" height="128"><defs><style type="text/css"></style></defs><path d="M835.73333333 188.37333333C749.33333333 102.08 634.45333333 54.50666667 512 54.50666667c-122.45333333 0-237.33333333 47.57333333-323.62666667 133.86666666C102.08 274.66666667 54.50666667 389.65333333 54.50666667 512c0 122.45333333 47.57333333 237.33333333 133.86666666 323.62666667 86.29333333 86.29333333 201.28 133.86666667 323.62666667 133.86666666 122.34666667 0 237.33333333-47.57333333 323.62666667-133.86666666C1014.08 657.17333333 1014.08 366.82666667 835.73333333 188.37333333zM793.6 793.6c-75.09333333 75.09333333-175.04 116.48-281.6 116.48-106.56 0-206.50666667-41.38666667-281.6-116.48-155.30666667-155.30666667-155.30666667-408 0-563.2 75.09333333-75.09333333 175.04-116.48 281.6-116.48 106.45333333 0 206.50666667 41.38666667 281.6 116.48 75.09333333 75.09333333 116.48 175.04 116.48 281.6S868.69333333 718.50666667 793.6 793.6z" p-id="2134"></path><path d="M678.08 506.56l0.42666667-0.10666667c9.6-3.09333333 16-11.94666667 16-21.97333333 0-12.69333333-10.24-22.93333333-22.93333334-22.93333333L533.01333333 461.54666667l0-42.45333334 142.4-141.01333333 0.21333334-0.42666667c0.96-1.92 1.92-5.44 2.13333333-9.06666666 0.42666667-6.08-1.6-12.05333333-5.76-16.85333334-3.84-4.26666667-10.24-6.82666667-17.28-6.82666666-6.08 0-11.73333333 1.92-15.46666667 5.33333333l-128.74666666 126.93333333L374.29333333 243.52l-0.10666666-0.10666667c-3.09333333-2.66666667-8.21333333-4.26666667-14.08-4.26666666-7.46666667 0-14.29333333 2.56-17.81333334 6.61333333-6.72 7.57333333-7.68 18.88-2.34666666 27.41333333l2.24 3.62666667 144.64 141.22666667 0 43.62666666-144.74666667 1.06666667-0.42666667 0-0.42666666 0.10666667c-9.6 3.09333333-16 11.94666667-16 21.86666666 0 10.02666667 6.4 18.77333333 16 21.86666667l3.73333333 1.17333333 141.65333333 0 0 71.25333334-144.74666666 1.06666666-0.42666667 0-0.32 0.10666667c-9.6 2.98666667-16 11.84-16 21.86666667 0 10.02666667 6.4 18.88 16 21.97333333l3.62666667 1.17333333 141.76 0 0.10666666 141.65333334 1.17333334 2.34666666c3.09333333 9.38666667 11.84 15.78666667 21.76 15.78666667 10.02666667 0 18.77333333-6.4 21.86666666-16l1.17333334-3.73333333L532.58666667 625.17333333l145.06666666-1.06666666 0.42666667-0.10666667c9.6-3.09333333 16-11.94666667 16-21.97333333 0-12.69333333-10.24-22.93333333-22.93333333-22.93333334L533.01333333 579.09333333 533.01333333 507.73333333 678.08 506.56z" p-id="2135"></path></svg>