<?xml version="1.0" standalone="no"?><!DOCTYPE svg PUBLIC "-//W3C//DTD SVG 1.1//EN" "http://www.w3.org/Graphics/SVG/1.1/DTD/svg11.dtd"><svg t="1518058098256" class="icon" style="" viewBox="0 0 1024 1024" version="1.1" xmlns="http://www.w3.org/2000/svg" p-id="3294" xmlns:xlink="http://www.w3.org/1999/xlink" width="128" height="128"><defs><style type="text/css"></style></defs><path d="M188.43101867 634.04714667l-89.724928-222.138368c-7.8848-20.513792-7.621632-42.962944 0.789504-63.594496 7.989248-19.693568 22.391808-35.400704 40.68352-44.192768L616.19370667 75.00765867c38.582272-18.638848 82.891776-0.761856 98.610176 39.914496l90.673152 234.271744-48.253952 23.209984-90.673152-234.271744c-4.205568-10.784768-17.660928-14.94528-29.540352-9.320448L160.99396267 357.92759467c-6.202368 2.988032-11.037696 8.146944-13.61408 14.53568-1.261568 3.165184-3.048448 9.377792-0.525312 15.824896l89.515008 221.787136L188.43101867 634.04714667zM809.20644267 925.99466667L264.96375467 925.99466667c-43.4688 0-78.844928-39.446528-78.844928-87.91552L186.11882667 428.78941867c0-48.47104 35.375104-87.917568 78.844928-87.917568l544.242688 0c43.469824 0 78.844928 39.445504 78.844928 87.917568l0 409.289728C888.05137067 886.54813867 852.67626667 925.99466667 809.20644267 925.99466667zM264.96375467 399.48356267c-14.507008 0-26.28096 13.12768-26.28096 29.304832L238.68279467 838.07914667c0 16.115712 11.774976 29.302784 26.28096 29.302784l544.242688 0c14.454784 0 26.281984-13.187072 26.281984-29.302784L835.48842667 428.78941867c0-16.178176-11.8272-29.304832-26.281984-29.304832L264.96375467 399.48356267 264.96375467 399.48356267zM391.11645867 672.61610667c-7.201792 0-14.139392-4.39808-17.608704-12.075008-4.939776-10.840064-1.051648-24.031232 8.725504-29.541376l225.60256-127.070208c9.618432-5.450752 21.551104-1.173504 26.492928 9.729024 4.885504 10.842112 0.999424 24.032256-8.725504 29.48096L399.94845867 670.26909867C397.10890667 671.85322667 394.11268267 672.61610667 391.11645867 672.61610667zM474.00925867 788.60663467c-6.885376 0-13.56288-3.985408-17.188864-11.136-5.36064-10.550272-2.048-23.914496 7.412736-29.948928l230.647808-145.769472c9.25184-5.979136 21.445632-2.341888 26.858496 8.323072 5.415936 10.550272 2.050048 23.914496-7.463936 29.950976L483.67991467 785.79473067C480.63146667 787.72804267 477.32087467 788.60663467 474.00925867 788.60663467z" p-id="3295"></path></svg>