<?xml version="1.0" standalone="no"?><!DOCTYPE svg PUBLIC "-//W3C//DTD SVG 1.1//EN" "http://www.w3.org/Graphics/SVG/1.1/DTD/svg11.dtd"><svg t="1518058107916" class="icon" style="" viewBox="0 0 1024 1024" version="1.1" xmlns="http://www.w3.org/2000/svg" p-id="3683" xmlns:xlink="http://www.w3.org/1999/xlink" width="128" height="128"><defs><style type="text/css"></style></defs><path d="M553.89573277 53.10206736c-23.60126359 0-49.43696477 13.96524375-76.9484971 41.33712337L272.91501458 298.47141181l-92.44991781 0c-59.0729846 0-107.25307787 48.18009327-107.25307787 107.25307788l0 214.50615574c0 59.0729846 48.18009327 107.25307787 107.25307787 107.25307787l92.44991781 0L477.08688839 931.65559709c27.65118356 27.65118356 53.62653893 41.7560815 77.08814981 41.75608152 25.55639722 0 55.44201985-17.59620852 55.44201984-67.17282601L609.61705952 119.71628252C609.47740679 70.5586217 579.59178271 53.10206736 553.89573277 53.10206736zM541.74597138 909.1715523C541.60631867 909.03190106 541.60631867 909.03190106 541.74597138 909.1715523L312.99526642 680.42084881c-6.70331718-6.70331718-15.78072614-10.47393318-25.27709176-10.47393316l-121.21832165 0c-19.69099487 0-35.75102646-16.06003158-35.75102645-35.75102647L130.74882656 391.75924445c0-19.69099487 16.06003158-35.75102646 35.75102645-35.75102647l121.21832165 0c9.49636563 0 18.5737746-3.770616 25.27709176-10.47393318l228.47139953-228.4713995c0 0 0.13965271-0.13965271 0.13965272-0.13965272 3.770616-3.770616 10.19462775-0.97756755 10.05497649 4.3292254l0.27930545 783.45021472C551.94059914 910.14911984 545.51658738 912.9421683 541.74597138 909.1715523z" p-id="3684"></path><path d="M867.41547226 298.75071725c-15.36176947-20.10995154-44.96808666-21.92543393-62.84360063-4.04992145l0 0c-14.94281132 14.94281132-16.33933554 38.40442219-3.63096328 55.16271588 72.89857565 96.36018654 73.17788109 230.2868819 0.6982621 326.92637238-12.56871953 16.7582937-11.03254258 40.21990457 3.77061604 55.02306317l0 0c17.87551249 17.87551249 47.62148387 16.06003158 62.98325184-4.1895727C963.63600606 600.81895452 963.35670063 425.13617913 867.41547226 298.75071725z" p-id="3685"></path><path d="M690.33617264 408.93649628L690.33617264 408.93649628c-13.26698165 13.26698165-16.06003158 33.79589135-6.84296991 50.27487962 18.5737746 33.51658738 18.71342731 74.57440531 0.27930543 108.0909927-9.07740897 16.33933554-6.14470779 36.72859253 6.98262261 49.99557565l0 0c19.69099487 19.69099487 52.92827681 14.94281132 66.33491119-9.49636564 32.39936711-58.79367918 32.2597144-130.85434-0.55860938-189.50836794C742.985144 393.85403226 710.02716603 389.24550142 690.33617264 408.93649628z" p-id="3686"></path></svg>