<?xml version="1.0" standalone="no"?><!DOCTYPE svg PUBLIC "-//W3C//DTD SVG 1.1//EN" "http://www.w3.org/Graphics/SVG/1.1/DTD/svg11.dtd"><svg t="1518058313236" class="icon" style="" viewBox="0 0 1024 1024" version="1.1" xmlns="http://www.w3.org/2000/svg" p-id="4334" xmlns:xlink="http://www.w3.org/1999/xlink" width="128" height="128"><defs><style type="text/css"></style></defs><path d="M896.67900985 127.46594418l-769.59902948 0c-30.35899335 0-54.97219072 24.61319737-54.97219072 54.97102677l0 659.65348409c0 30.35899335 24.61436131 54.97335467 54.97219072 54.97335467l769.59902948 0c30.35550037 0 54.96986283-24.61436131 54.96986282-54.97335467L951.64887267 182.43697095C951.64887267 152.07914155 927.03567531 127.46594418 896.67900985 127.46594418zM175.17933795 842.09161899c-26.54825586 0-48.09935758-21.09586205-48.09935758-47.11902094l0-115.39910429 183.08539734-183.06327552 345.55927893 345.58140075L175.17933795 842.09161899zM896.67900985 794.97259805c0 26.0231589-21.55575865 47.11902094-48.09935758 47.11902094l-115.09755222 0L594.79127495 703.40195669l301.88773604-301.89704988L896.67900985 794.97259805zM555.92477696 664.52265187l-206.89523029-206.8929024 0.32483783-0.3364807-38.86766194-38.866498-0.32250994 0.33531677-0.13505877-0.12108687-38.86766194 38.866498 0.1082789 0.12108686L127.07998037 601.82885603 127.07998037 229.55832093c0-26.0231589 21.55226567-47.12018489 48.09935758-47.1201849L848.57965341 182.4381349c26.54476288 0 48.09935758 21.09819107 48.09935758 47.12018489l0 94.19962026L555.92477696 664.52265187z" p-id="4335"></path></svg>