<?xml version="1.0" standalone="no"?><!DOCTYPE svg PUBLIC "-//W3C//DTD SVG 1.1//EN" "http://www.w3.org/Graphics/SVG/1.1/DTD/svg11.dtd"><svg t="1518058285779" class="icon" style="" viewBox="0 0 1024 1024" version="1.1" xmlns="http://www.w3.org/2000/svg" p-id="4205" xmlns:xlink="http://www.w3.org/1999/xlink" width="128" height="128"><defs><style type="text/css"></style></defs><path d="M996.46405399 615.99167201c-7.849985 0-15.58796999-3.24299399-21.27695899-9.556981l-427.746164-481.10906101c-9.613981-10.808979-22.186957-16.724967-35.384931-16.72496699-13.19797401 0-25.82795001 5.972988-35.384931 16.78196701L49.777903 606.49169002c-10.40998 11.774977-28.444944 12.742975-40.163922 2.388996-11.775977-10.46798-12.799975-28.387945-2.38999501-40.16392201l426.83716601-481.10906c20.53696-23.152955 48.24190601-35.89592999 77.937848-35.89592999h0.057c29.69594199 0 57.399888 12.742975 77.879848 35.83992999l427.804164 481.10906c10.46798 11.717977 9.38698201 29.69494199-2.389995 40.16292201a28.498944 28.498944 0 0 1-18.88596301 7.16798599z" p-id="4206"></path><path d="M853.331333 561.776778v284.443444c0 31.402939-25.48594999 56.889889-56.888889 56.88988901H682.665667V675.55355601c0-62.805877-51.0299-113.77777801-113.777778-113.77777801H455.109111c-62.747877 0-113.77777801 50.9719-113.777778 113.77777801V903.10811101H227.555556c-31.345939 0-56.889889-25.48594999-56.889889-56.88888899V561.776778h-56.88788899v284.443444c0 62.748877 51.0299 113.77777801 113.77777799 113.77777801h170.66666599V675.55455601c0-31.345939 25.54195001-56.889889 56.88788901-56.889889H568.888889c31.402939 0 56.888889 25.54394999 56.88888901 56.889889V959.99800001h170.66566599c62.748877 0 113.77777801-51.0299 113.77777801-113.77777801V561.776778h-56.88888901z" p-id="4207"></path></svg>