<?xml version="1.0" standalone="no"?><!DOCTYPE svg PUBLIC "-//W3C//DTD SVG 1.1//EN" "http://www.w3.org/Graphics/SVG/1.1/DTD/svg11.dtd"><svg t="1521769711146" class="icon" style="" viewBox="0 0 1024 1024" version="1.1" xmlns="http://www.w3.org/2000/svg" p-id="2004" xmlns:xlink="http://www.w3.org/1999/xlink" width="64" height="64"><defs><style type="text/css"></style></defs><path d="M311.60547555 223.27978667c-18.64135111 0-33.20490667-15.14609778-33.20490666-33.20490667L278.40056889 109.10151112c0-18.64135111 15.14609778-33.20490667 33.20490666-33.20490666s33.20490667 15.14609778 33.20490667 33.20490666l0 80.97336888C344.81038222 208.13368889 330.24682667 223.27978667 311.60547555 223.27978667z" p-id="2005"></path><path d="M728.12316445 223.27978667c-18.64135111 0-33.20490667-15.14609778-33.20490667-33.20490667L694.91825778 109.10151112c0-18.64135111 15.14609778-33.20490667 33.20490667-33.20490666s33.20490667 15.14609778 33.20490666 33.20490666l0 80.97336888C761.91061333 208.13368889 746.76451555 223.27978667 728.12316445 223.27978667z" p-id="2006"></path><path d="M621.51793778 224.44487112L418.21070222 224.44487112c-18.64135111 0-33.20490667-15.14609778-33.20490667-33.20490666 0-18.64135111 15.14609778-33.20490667 33.20490667-33.20490668l203.30723556 0c18.64135111 0 33.20490667 15.14609778 33.20490667 33.20490668C654.72284445 209.88131556 640.15928889 224.44487112 621.51793778 224.44487112z" p-id="2007"></path><path d="M834.72839111 962.52586667L205.00024889 962.52586667c-73.40032 0-133.40216889-60.00184889-133.40216889-133.40216889L71.59808 291.43722667c0-73.40032 59.41930667-132.81962667 132.81962667-133.40216889 0 0 0 0 0 0l0 0c18.64135111 0 33.20490667 15.14609778 33.20490666 33.20490666 0 18.64135111-15.14609778 33.20490667-33.20490666 33.20490668-36.70016 0-66.40981333 29.70965333-66.40981334 66.40981332l0 538.26901334c0 36.70016 29.70965333 66.40981333 66.40981334 66.40981334l629.72814222 0c36.70016 0 66.40981333-29.70965333 66.40981333-66.40981334L900.55566222 291.43722667c0-36.70016-29.70965333-66.40981333-66.40981333-66.40981333-18.64135111 0-33.78744889-15.14609778-33.78744889-33.20490667 0-18.64135111 14.56355555-33.20490667 33.20490667-33.20490667 73.98286222 0 133.98471111 60.00184889 133.98471111 133.40216889l0 538.26901333C968.13056 903.10656 908.12871111 962.52586667 834.72839111 962.52586667z" p-id="2008"></path><path d="M777.63925333 532.60970667L777.63925333 532.60970667l-507.39427555 0c-18.64135111 0-33.20490667-15.14609778-33.20490667-33.20490667 0-18.64135111 15.14609778-33.20490667 33.20490667-33.20490666l0 0 507.39427555 0c18.64135111 0 33.20490667 15.14609778 33.20490667 33.20490666C810.84416 517.46360889 796.28060445 532.60970667 777.63925333 532.60970667z" p-id="2009"></path><path d="M777.63925333 682.32305778L777.63925333 682.32305778l-507.39427555 0c-18.64135111 0-33.20490667-15.14609778-33.20490667-33.20490666 0-18.64135111 15.14609778-33.20490667 33.20490667-33.20490666l0 0 507.39427555 0c18.64135111 0 33.20490667 15.14609778 33.20490667 33.20490666C810.84416 667.17696 796.28060445 682.32305778 777.63925333 682.32305778z" p-id="2010"></path></svg>