<?xml version="1.0" standalone="no"?><!DOCTYPE svg PUBLIC "-//W3C//DTD SVG 1.1//EN" "http://www.w3.org/Graphics/SVG/1.1/DTD/svg11.dtd"><svg t="1516671228254" class="icon" style="" viewBox="0 0 1024 1024" version="1.1" xmlns="http://www.w3.org/2000/svg" p-id="1073" xmlns:xlink="http://www.w3.org/1999/xlink" width="128" height="128"><defs><style type="text/css"></style></defs><path d="M667.34459221 560.54518557c0 87.38133333-67.96325888 155.34459221-155.34459221 155.34459221S356.65540779 647.9265189 356.65540779 560.54518557s67.96325888-155.34459221 155.34459221-155.34459336 155.34459221 67.96325888 155.34459221 155.34459336z" fill="#00D4A5" p-id="1074"></path><path d="M667.34459221 560.54518557c0 87.38133333-67.96325888 155.34459221-155.34459221 155.34459221S356.65540779 647.9265189 356.65540779 560.54518557s67.96325888-155.34459221 155.34459221-155.34459336 155.34459221 67.96325888 155.34459221 155.34459336z" fill="" p-id="1075"></path><path d="M512 803.27111111c-135.9265189 0-242.72592555-106.79940779-242.72592555-242.72592554s106.79940779-242.72592555 242.72592555-242.72592669 242.72592555 106.79940779 242.72592555 242.72592669-106.79940779 242.72592555-242.72592555 242.72592554zM366.36444445 75.09333333L278.98311111 172.18370333H123.6385189c-53.39970333 0-97.09036999 43.69066667-97.09037113 97.09037112v582.54222222c0 53.39970333 43.69066667 97.09036999 97.09037113 97.09037h776.7229622c53.39970333 0 97.09036999-43.69066667 97.09037113-97.09037V269.27407445c0-53.39970333-43.69066667-97.09036999-97.09037113-97.09037112h-155.34459221L657.63555555 75.09333333H366.36444445z" fill="#00D4A5" p-id="1076"></path><path d="M512 803.27111111c-135.9265189 0-242.72592555-106.79940779-242.72592555-242.72592554s106.79940779-242.72592555 242.72592555-242.72592669 242.72592555 106.79940779 242.72592555 242.72592669-106.79940779 242.72592555-242.72592555 242.72592554zM366.36444445 75.09333333L278.98311111 172.18370333H123.6385189c-53.39970333 0-97.09036999 43.69066667-97.09037113 97.09037112v582.54222222c0 53.39970333 43.69066667 97.09036999 97.09037113 97.09037h776.7229622c53.39970333 0 97.09036999-43.69066667 97.09037113-97.09037V269.27407445c0-53.39970333-43.69066667-97.09036999-97.09037113-97.09037112h-155.34459221L657.63555555 75.09333333H366.36444445z" fill="" p-id="1077"></path></svg>