<?xml version="1.0" standalone="no"?><!DOCTYPE svg PUBLIC "-//W3C//DTD SVG 1.1//EN" "http://www.w3.org/Graphics/SVG/1.1/DTD/svg11.dtd"><svg t="1516682200857" class="icon" style="" viewBox="0 0 1024 1024" version="1.1" xmlns="http://www.w3.org/2000/svg" p-id="1473" xmlns:xlink="http://www.w3.org/1999/xlink" width="128" height="128"><defs><style type="text/css"></style></defs><path d="M59.97855302 959.86434283c5.51452591 5.51452591 12.75410864 8.25764905 19.9936914 8.25764905 7.23958273 0 14.47916546-2.77140276 20.02197099-8.28592867l404.17232984-404.65308339 404.17232983 404.65308339c5.51452591 5.54280553 12.75410864 8.28592868 20.02197101 8.28592867 7.23958273 0 14.47916546-2.77140276 19.99369137-8.25764905 11.05733143-11.02905183 11.05733143-28.93005131 0.02827963-39.98738276L544.60640192 515.64807099 948.35453746 111.44746154c11.02905183-11.05733143 11.02905183-28.95833093-0.02827961-39.98738277-11.08561106-11.05733143-28.95833093-11.05733143-39.98738277 0.02827962L504.13826562 476.14144177 99.96593579 71.48835839c-11.05733143-11.05733143-28.95833093-11.05733143-39.98738277-0.02827962-11.05733143 11.02905183-11.05733143 28.93005131-0.02827962 39.98738277l403.71985592 404.20060945L59.9502734 919.87696007C48.92122159 930.90601188 48.92122159 948.83529101 59.97855302 959.86434283z" fill="" p-id="1474"></path></svg>