<?xml version="1.0" standalone="no"?><!DOCTYPE svg PUBLIC "-//W3C//DTD SVG 1.1//EN" "http://www.w3.org/Graphics/SVG/1.1/DTD/svg11.dtd"><svg t="1516757865563" class="icon" style="" viewBox="0 0 1024 1024" version="1.1" xmlns="http://www.w3.org/2000/svg" p-id="1358" xmlns:xlink="http://www.w3.org/1999/xlink" width="128" height="128"><defs><style type="text/css"></style></defs><path d="M505.60162028 38.58732626c-254.37024387 0-460.57369385 206.20344999-460.57369391 460.57369392s206.20344999 460.57369385 460.57369391 460.57369917 460.57369385-206.20344999 460.57369918-460.57369917-206.20344999-460.57369385-460.57369918-460.57369392z m197.47097402 359.24748518h-86.35756725l-54.30624559 324.70445294s-1.24815525 29.93728825-29.17273972 29.93728815h-26.26651585v0.02763635h-27.91997933c-27.92458438 0-29.1727397-29.93728825-29.17273437-29.93728815l-54.30624547-324.70445835h-86.35756741c-140.18942195-54.11740703-63.32888441-156.59505712-63.32888442-156.59505703 55.41161926 55.41161926 94.99332404 49.51167375 94.99332401 49.51167369H505.60162028v-0.0276363h165.80653447s39.58170476 5.89995089 94.99332402-49.51166842c0 0 76.86053737 102.4776447-63.32888447 156.59505712z" p-id="1359"></path></svg>