<?xml version="1.0" standalone="no"?><!DOCTYPE svg PUBLIC "-//W3C//DTD SVG 1.1//EN" "http://www.w3.org/Graphics/SVG/1.1/DTD/svg11.dtd"><svg t="1516801382895" class="icon" style="" viewBox="0 0 1024 1024" version="1.1" xmlns="http://www.w3.org/2000/svg" p-id="2091" xmlns:xlink="http://www.w3.org/1999/xlink" width="64" height="64"><defs><style type="text/css"></style></defs><path d="M411.733333 104.533333c-25.6-25.6-66.133333-25.6-89.6 0L19.2 405.333333c-25.6 25.6-25.6 66.133333 0 91.733334l422.4 422.4c25.6 25.6 66.133333 25.6 89.6 0L576 874.666667 349.866667 648.533333c-8.533333-8.533333-8.533333-21.333333 0-29.866666 8.533333-8.533333 21.333333-8.533333 29.866666 0l226.133334 226.133333 59.733333-59.733333-300.8-302.933334c-8.533333-8.533333-8.533333-21.333333 0-29.866666 8.533333-8.533333 21.333333-8.533333 29.866667 0l302.933333 302.933333 59.733333-59.733333-226.133333-228.266667c-8.533333-8.533333-8.533333-21.333333 0-29.866667 8.533333-8.533333 21.333333-8.533333 29.866667 0L789.333333 663.466667l83.2-89.6-460.8-469.333334zM1004.8 347.733333l-181.333333-181.333333c-25.6-25.6-66.133333-25.6-89.6 0l-102.4 104.533333 270.933333 273.066667 102.4-102.4c25.6-27.733333 25.6-68.266667 0-93.866667z" p-id="2092"></path></svg>