<?xml version="1.0" standalone="no"?><!DOCTYPE svg PUBLIC "-//W3C//DTD SVG 1.1//EN" "http://www.w3.org/Graphics/SVG/1.1/DTD/svg11.dtd"><svg t="1516623106205" class="icon" style="" viewBox="0 0 1024 1024" version="1.1" xmlns="http://www.w3.org/2000/svg" p-id="1047" xmlns:xlink="http://www.w3.org/1999/xlink" width="64" height="64"><defs><style type="text/css"></style></defs><path d="M850.133114 171.821297c-142.746098-142.747121-374.262986-142.747121-517.040806 0C199.088314 305.886689 190.910051 518.088672 308.587194 661.685137l-53.03489 53.002145L126.299521 585.467245c-14.281261-14.282285-37.432541-14.282285-51.713802 0-14.281261 14.280238-14.281261 37.369096 0 51.713802l129.22106 129.22106-77.538981 77.538981c-14.281261 14.248516-14.281261 37.432541 0 51.712779 14.249539 14.281261 37.400818 14.281261 51.712779 0l77.538981-77.538981 129.252783 129.252783c14.282285 14.281261 37.432541 14.281261 51.714825 0 14.280238-14.281261 14.280238-37.432541 0-51.745525l-129.253806-129.22106 53.03489-53.03489c143.565766 117.64542 355.861894 109.497856 489.86384-24.536836C992.910934 546.084283 992.910934 314.599118 850.133114 171.821297L850.133114 171.821297zM798.419312 637.149325C684.328857 751.302201 499.178997 751.365646 384.961652 637.305891l-0.283456-0.314155c-114.02701-114.279766-114.02701-299.30376 0.12689-413.45766 114.216321-114.216321 299.460326-114.216321 413.614226 0C912.667356 337.751421 912.667356 522.93198 798.419312 637.149325L798.419312 637.149325z" p-id="1048"></path></svg>