<?xml version="1.0" standalone="no"?><!DOCTYPE svg PUBLIC "-//W3C//DTD SVG 1.1//EN" "http://www.w3.org/Graphics/SVG/1.1/DTD/svg11.dtd"><svg t="1521614825188" class="icon" style="" viewBox="0 0 1024 1024" version="1.1" xmlns="http://www.w3.org/2000/svg" p-id="1970" xmlns:xlink="http://www.w3.org/1999/xlink" width="64" height="64"><defs><style type="text/css"></style></defs><path d="M875.15544931 433.48333552c-10.53665156-4.89281924-17.58806807-10.11392578-25.27806885-11.3461251-17.83990372-2.8646376-19.22950107-13.89596748-19.10358281-28.85774238 0.59361416-68.91770391 0.31029873-137.84440078 0.24733916-206.76660205-0.04047363-42.37145859-18.9866584-61.60995352-61.55598867-61.64592979-177.55358994-0.13940948-355.1026834-0.14390684-532.65627335-0.00449737-40.87842891 0.03147979-61.39859062 20.07944824-61.43456776 60.39574278-0.17538575 199.27896856-0.1663919 398.55344063-0.00449737 597.83240918 0.03597627 42.57382675 19.04961797 60.79148526 62.28901231 60.83195888 65.17613584 0.06295869 130.37475674 0.96237422 195.51941279-0.5261581 21.41507988-0.49018096 35.94963252 3.68310586 42.47489092 25.4939291 1.59646201 5.33353359 5.81921719 9.88457519 11.41358115 19.00014961-11.18872705 0-18.87872871 0-26.56873037 0-80.1603958 0-160.38375029-1.93824053-240.46319883 0.62959043-61.29965479 1.96522295-89.90556152-33.12097119-90.1034332-90.80497706C129.27926806 609.67431139 129.68400526 421.62904089 129.68400526 233.58826774c0-19.47684023-0.06295869-38.95817695 0.01349122-58.43501719C129.95383036 109.81522018 159.97181864 79.47344196 225.08049755 79.40148942c137.09788594-0.14840333 274.19577276-0.04497099 411.28916221-0.044971 50.191875 0 100.39274472-0.36426357 150.58012325 0.1214209 38.54894326 0.37325742 70.41972744 12.54684463 84.21226171 52.7821919 1.89776602 5.54039912 3.80452676 11.45855215 3.81801797 17.21031328C875.22290536 243.09059079 875.15544931 336.71523532 875.15544931 433.48333552z" p-id="1971"></path><path d="M737.39199492 950.89901589c-137.1473543 3.30535195-246.6151998-112.44041367-245.77424649-242.26202988 0.87692959-134.9932544 110.04347198-246.30490195 244.51056826-246.20596612 138.79328467 0.1034332 246.04407158 108.85174629 245.53590205 245.18512969C981.16953955 841.81791813 878.40683554 952.15819675 737.39199492 950.89901589zM736.01588965 907.4437613c111.89626699 0.31029873 202.47189346-88.93419258 201.40608603-200.05696319-1.05681269-109.78713808-87.77394668-200.04347197-198.22215586-201.41957725-106.61220176-1.32663779-201.77484609 89.86059052-203.2498872 200.20536651C534.50637129 814.31379596 632.12441953 910.5737275 736.01588965 907.4437613z" p-id="1972"></path><path d="M385.46874521 516.44091374c-0.00449737-51.37010948-0.00449737-51.35212089-51.93224384-51.37910332-12.73572158-0.00449737-25.70529199 1.22320459-38.09923507-0.86793575-5.32903623-0.89941552-9.47084414-8.81427041-14.15230136-13.54069863 5.08169708-3.04901807 10.04646972-8.47249277 15.26757626-8.73332315 20.93389277-1.02983028 41.94873369-0.78249112 62.9231001-0.38225127 17.6465294 0.33728115 28.2821168-4.24524023 26.36186484-25.38599941-1.75835742-19.32393955-1.22770195-38.98515938-0.1034332-58.4035374 0.88142695-15.17313779-5.79223477-19.91755372-19.59376376-19.71518554-21.72537862 0.31929258-43.53620185 1.01184258-65.14915343-0.59361417-6.92100176-0.5126669-13.3338331-7.81142256-19.9805124-12.00269794 6.72762744-3.90795997 13.3967918-10.95487911 20.20086914-11.09428857 16.32438896-0.33278379 23.41178261-5.80572597 21.43756582-22.68775284-1.12426963-9.60575625-1.19622217-19.62974092 0.35526885-29.12307012 0.71953242-4.40263828 6.43981377-7.9868083 9.89356904-11.93973925 3.86298896 3.80902412 10.1409082 7.10538135 11.08079737 11.53500205 1.82581348 8.62089609 1.5649831 17.97931318 0.53964931 26.84305194-2.09114033 18.07375166 4.07884834 26.19997031 23.33083535 25.00374727 20.15589903-1.25468438 40.46919521-0.82746211 60.67456172-0.09443847 15.66331875 0.57112911 21.70289356-5.76075586 20.17838408-21.29815635-0.94438653-9.63723604-1.47953848-19.80512666 0.69255-29.05561407 1.17373711-5.00974365 8.40503672-8.59841104 12.90661084-12.83016005 2.77469648 4.5195627 6.78159229 8.73782051 8.00029952 13.64413096 1.4030877 5.64832881 0.84545068 11.96222432 0.25183652 17.89386855-2.02818164 20.36726104 2.56333359 33.81352119 27.41867754 32.11362598 5.41897734-0.36876006 11.36411367 6.9299956 17.06640644 10.69404873-5.94513545 4.32169102-11.65192646 11.9172542-17.87138349 12.36696152-21.62194541 1.55598838-43.46424844 1.51551474-65.14015869 0.39574248-19.76915039-1.02083643-26.59121543 6.62869161-24.68445469 26.21346152 1.66391807 17.07540117 1.75386006 34.58252109-0.01349121 51.63543721-2.16309375 20.91140771 8.32858682 26.07405205 26.006596 25.83570674 18.73032539-0.25633301 37.59106553-1.29515801 56.15050253 0.50816953 8.62539346 0.84095332 16.67066396 7.60455703 24.98126221 11.68340537-8.73332315 3.79553291-17.26877549 10.16339414-26.24494042 10.86943448-20.8529455 1.63243916-41.94873369 1.14675469-62.89611768 0.32378993-13.88247627-0.54414667-18.36606182 4.81187197-17.86688613 18.37505655 0.8589419 23.20041972 0.90840937 46.48628408-0.2428418 69.65972139-0.29680664 5.95413018-6.34087881 11.62044668-9.74516572 17.4171788-3.99790107-5.97211787-10.42872099-11.55299062-11.46304864-18.00179912C384.1286162 540.63518747 385.47324257 528.43012047 385.46874521 516.44091374z" p-id="1973"></path><path d="M660.82476387 316.10513161c-14.95727754 0.01798857-30.05846191 1.25018701-44.79538273-0.54414668-6.50277334-0.79148584-12.25453447-7.73497266-18.34357675-11.88127706 5.61684902-3.82251533 11.13026573-10.75251094 16.87303213-10.94588524 32.11362597-1.09278984 64.3082001-1.12876612 96.41732871-0.01798859 5.32903623 0.18438047 10.40623594 7.7889375 15.5958627 11.96672169-5.46394834 3.80452676-10.67606016 10.35676846-16.44131338 10.88742305C693.81532031 317.05851198 677.27507109 316.08714303 660.82476387 316.10513161z" p-id="1974"></path><path d="M283.01633906 676.86963503c37.76645215 0 75.54189815-0.30580136 113.2948582 0.47668974 3.77304785 0.0764499 7.41118271 6.78608877 11.10777979 10.41972715-3.92594854 3.5391999-7.78444013 10.05096709-11.79133594 10.14540557-34.18228125 0.80497705-68.41403086 1.07030391-102.56033585-0.25633301-4.92879638-0.18887695-9.4933292-9.69569737-14.22425389-14.88982148C280.23714609 680.80457741 281.62674257 678.8348571 283.01633906 676.86963503z" p-id="1975"></path><path d="M774.22305526 592.98116237c6.61969687 2.67126328 15.87018427 3.45375528 19.3779044 8.35107187 12.06565752 16.85054708 22.26952442 35.04572051 32.89611709 52.9036128 8.57592598 14.41313174 5.50442197 22.36396377-12.59181563 22.30550156-51.56798115-0.17538575-103.14045878 0.31479521-154.69494785-0.56663173-5.82821192-0.09893584-11.53050557-7.28076709-17.29575791-11.17523585 6.19697197-3.46274912 12.31749404-9.74966308 18.60440713-9.92504883 35.09968535-0.97586542 70.23984433-0.47219326 105.36651211-0.47219326 7.28076709 0 14.56153506 0 29.27597081 0-9.10208408-21.05531367-16.09054102-37.22230547-23.07899883-53.38929726C772.79748163 598.33268366 773.51251669 595.65692302 774.22305526 592.98116237z" p-id="1976"></path><path d="M676.75790771 761.75196081c10.90091426 21.25318535 18.80227881 36.66017109 27.13985947 52.917104-7.90586104 9.50682041-14.7818918 16.26143028-23.95592841-0.647579-10.59061641-19.51731386-23.20041972-37.93284404-34.62749209-57.00944356-6.61520039-11.04032373-2.77469648-17.13386338 9.81711914-17.16534228 54.56303438-0.13940948 109.1350626-0.32828643 163.68910224 0.37775478 4.82536318 0.06295869 9.57427646 6.45330498 14.35466953 9.90706025-5.50442197 3.86298896-10.90990898 10.8964169-16.53125449 11.07180352-33.6021583 1.06131006-67.25378496 0.53964932-100.89192041 0.54864317C705.42227578 761.75196081 695.0969871 761.75196081 676.75790771 761.75196081z" p-id="1977"></path></svg>