<?xml version="1.0" standalone="no"?><!DOCTYPE svg PUBLIC "-//W3C//DTD SVG 1.1//EN" "http://www.w3.org/Graphics/SVG/1.1/DTD/svg11.dtd"><svg t="1516603111412" class="icon" style="" viewBox="0 0 1024 1024" version="1.1" xmlns="http://www.w3.org/2000/svg" p-id="1528" xmlns:xlink="http://www.w3.org/1999/xlink" width="128" height="128"><defs><style type="text/css"></style></defs><path d="M949.81688853 359.26854185c0-34.4064-23.7750048-48.53304853-58.25422186-48.53304852h-58.25422187c27.48871147-27.12462187 55.21408-76.64071147 55.21408-120.4224 0-53.99438187-31.05678187-112.59448853-118.21966293-112.59448853-114.688 0-212.37304853 135.5138848-257.39264 203.88977706-45.056-68.37589333-141.94005333-203.88977813-256.59164374-203.88977706-87.19928853 0-118.21966187 58.61831147-118.21966293 112.59448853 0 43.79989333 26.3600352 93.29777813 54.4130848 120.4224h-58.25422187c-34.47921813 0-58.25422187 14.1084448-58.25422293 48.53304853v184.48384h58.25422293v349.52533335c0 34.4064 32.65877333 58.25422187 67.11978667 58.25422292h623.8663104c34.4246048 0 66.31879147-23.84782187 66.31879147-58.25422293v-349.52533334l58.25422186 2.11171627v-186.59555627zM770.30286187 140.01421333c38.57521813 0 55.77841813 16.2019552 55.77841813 50.29888 0 69.2861152-65.62702187 120.4224-138.40839147 120.4224h-116.50844373c44.34602667-65.75445333 121.47825813-170.72128 199.13841707-170.72128z m-513.98428374 0c77.58734187 0 153.9913952 104.96682667 198.33742187 170.72128h-87.38133333c-72.79957333 0-166.7709152-52.15573333-166.7709152-121.38723519 0-34.07872 17.23960853-49.3340448 55.81482666-49.33404481zM542.03733333 485.49816v-116.5084448h349.52533334v116.5084448h-349.52533334z m-407.7795552-116.5084448h349.52533334v116.5084448H134.25777813v-116.5084448z m58.25422187 174.76266666h291.27111147v349.52533335h-291.27111147v-349.52533335z m349.52533333 349.52533335v-349.52533335h291.27111147v349.52533335h-291.27111147z" p-id="1529"></path></svg>