<?xml version="1.0" standalone="no"?><!DOCTYPE svg PUBLIC "-//W3C//DTD SVG 1.1//EN" "http://www.w3.org/Graphics/SVG/1.1/DTD/svg11.dtd"><svg t="1516801380937" class="icon" style="" viewBox="0 0 1024 1024" version="1.1" xmlns="http://www.w3.org/2000/svg" p-id="1963" xmlns:xlink="http://www.w3.org/1999/xlink" width="64" height="64"><defs><style type="text/css"></style></defs><path d="M1024 369.216C1024 201.152 890.048 64 725.824 64A291.2 291.2 0 0 0 512 156.8 293.056 293.056 0 0 0 298.176 64C133.952 64 0 201.152 0 369.216c0 78.08 28.672 151.744 81.024 208.512 1.088 1.152 1.664 2.24 2.752 3.392l4.416 4.48 377.536 369.92c12.16 12.288 28.608 19.072 46.272 19.072 17.664 0 34.752-7.296 47.36-19.712 12.16-11.2 309.248-300.16 377.6-369.28l1.088-1.088-0.576 0.576 2.752-2.816A309.568 309.568 0 0 0 1024 369.216zM355.776 217.472c-84.352 0-152.704 70.208-152.704 156.224a23.552 23.552 0 0 1-23.104 23.68 23.552 23.552 0 0 1-23.168-23.68c0-111.808 89.28-202.88 198.4-202.88 12.672 0 23.168 10.688 23.168 23.616 0 12.352-9.92 23.04-22.592 23.04z" p-id="1964"></path></svg>