<?xml version="1.0" standalone="no"?><!DOCTYPE svg PUBLIC "-//W3C//DTD SVG 1.1//EN" "http://www.w3.org/Graphics/SVG/1.1/DTD/svg11.dtd"><svg t="1516603120963" class="icon" style="" viewBox="0 0 1024 1024" version="1.1" xmlns="http://www.w3.org/2000/svg" p-id="2041" xmlns:xlink="http://www.w3.org/1999/xlink" width="128" height="128"><defs><style type="text/css"></style></defs><path d="M929.9599 452.5619 591.0938 100.1277c-21.0616-21.8798-49.2104-33.9241-79.3743-33.9241-30.165 0-58.3137 12.0443-79.3754 33.9241L93.4789 452.5619c-34.9594 36.3766-30.464 67.8216-24.6866 80.9564 4.1134 9.3184 18.0378 34.9317 58.0936 34.9317h49.67424v271.12448c0 61.5547 44.2522 119.5131 107.1145 119.5131h57.004032 87.250944v-63.70816000000001V672.15872c0-30.763-4.6602-47.9027 26.7848-47.9027h57.005055999999996 57.004032c31.445 0 26.7848 17.1397 26.7848 47.9027v223.22073600000002 63.70816000000001h87.24992 57.005055999999996c62.8634 0 107.1145-57.9584 107.1145-119.5131v-271.12448h49.67424c40.0548 0 53.9791-25.6143 58.0946-34.9317C960.4219 520.3835 964.9193 488.9385 929.9599 452.5619zM896.5519 512.6451h-42.780672-28.500992-34.251776v326.929408c0 30.764-19.8369 63.7082-51.2543 63.7082h-88.395776V672.15872c0-61.5537-19.753-103.7076-82.644-103.7076h-57.004032-57.005055999999996c-62.889 0-82.644 42.154-82.644 103.7076v231.123968h-88.394752c-31.4173 0-51.2553-32.9441-51.2553-63.7082V512.64512h-34.251776-28.502016-42.780672c-0.981 0-1.8801-3.842-2.6972-3.8963 1.9343-3.3782 5.2593-11.9347 10.7909-17.6845l338.9194-352.1894c10.11-10.5441 24.3866-17.0025 38.2566-16.8663 13.8424-0.1362 27.2773 6.3222 37.3852 16.8663l338.8918 352.1894c5.5593 5.7498 8.8832 14.3063 10.8175 17.6845C898.431 508.8031 897.5329 512.6451 896.5519 512.6451z" p-id="2042"></path></svg>