<?xml version="1.0" standalone="no"?><!DOCTYPE svg PUBLIC "-//W3C//DTD SVG 1.1//EN" "http://www.w3.org/Graphics/SVG/1.1/DTD/svg11.dtd"><svg t="1516763665899" class="icon" style="" viewBox="0 0 1024 1024" version="1.1" xmlns="http://www.w3.org/2000/svg" p-id="3277" xmlns:xlink="http://www.w3.org/1999/xlink" width="128" height="128"><defs><style type="text/css"></style></defs><path d="M855.224 497.341c-46.746-107.387-95.077-165.637-112.384-212.174-18.393-49.462-0.255-91.586-0.255-91.586-38.373-7.675-66.898 28.953-88.43 66.11-13.325 22.991-30.73 162.352-57.976 196.567-4.64 5.827-13.856 4.402-16.443-2.583-93.074-251.33-43.177-385.845-43.177-385.845-146.406 55.255-182.837 198.192-189.796 220.32-13.446 42.748-7.76 205.295-7.76 205.295-0.578 11.115-15.684 13.978-20.29 3.846 0 0-38.58-95.104-43.07-147.296-3.676-42.724-3.987-33.824-3.987-33.824-66.316 61.324-139.941 200.188-139.941 293.472 0 187.34 165.269 339.208 369.14 339.208s369.138-151.868 369.138-339.208c0-39.963 0-78.371-14.769-112.302z" p-id="3278"></path></svg>