<?xml version="1.0" standalone="no"?><!DOCTYPE svg PUBLIC "-//W3C//DTD SVG 1.1//EN" "http://www.w3.org/Graphics/SVG/1.1/DTD/svg11.dtd"><svg t="1516623109999" class="icon" style="" viewBox="0 0 1024 1024" version="1.1" xmlns="http://www.w3.org/2000/svg" p-id="1170" xmlns:xlink="http://www.w3.org/1999/xlink" width="64" height="64"><defs><style type="text/css"></style></defs><path d="M954.19733333 94.72c-0.23893333-1.4336-0.34133333-2.90133333-0.85333333-4.3008l-0.03413333-0.03413333c-0.85333333-2.32106667-2.2528-4.23253333-3.584-6.28053334-0.03413333-0.06826667-0.06826667-0.1024-0.1024-0.17066666-0.88746667-1.36533333-1.29706667-2.8672-2.38933334-4.13013334-0.23893333-0.27306667-0.58026667-0.37546667-0.8192-0.64853333-1.70666667-1.8432-3.82293333-3.072-5.9392-4.5056 0-0.03413333-0.03413333-0.03413333-0.06826666-0.06826667-1.60426667-1.09226667-3.03786667-2.42346667-4.77866667-3.20853333h-0.03413333C931.29386667 69.46133333 926.58346667 68.26666667 921.6 68.26666667H682.66666667c-18.87573333 0-34.13333333 15.29173333-34.13333334 34.13333333s15.2576 34.13333333 34.13333334 34.13333333h148.61653333L668.39893333 280.1664C605.66186667 233.0624 528.04266667 204.8 443.73333333 204.8 236.71466667 204.8 68.26666667 373.248 68.26666667 580.26666667s168.448 375.46666667 375.46666666 375.46666666 375.46666667-168.448 375.46666667-375.46666666c0-98.03093333-38.05866667-187.11893333-99.84-254.0544L887.46666667 178.00533333V307.2c0 18.8416 15.2576 34.13333333 34.13333333 34.13333333s34.13333333-15.29173333 34.13333333-34.13333333V102.4c0-2.73066667-0.9216-5.12-1.536-7.68zM750.93333333 580.26666667c0 169.40373333-137.79626667 307.2-307.2 307.2-169.3696 0-307.2-137.79626667-307.2-307.2 0-169.3696 137.8304-307.2 307.2-307.2 169.40373333 0 307.2 137.8304 307.2 307.2z" p-id="1171"></path></svg>