<?xml version="1.0" standalone="no"?><!DOCTYPE svg PUBLIC "-//W3C//DTD SVG 1.1//EN" "http://www.w3.org/Graphics/SVG/1.1/DTD/svg11.dtd"><svg t="1516759735581" class="icon" style="" viewBox="0 0 1024 1024" version="1.1" xmlns="http://www.w3.org/2000/svg" p-id="1760" xmlns:xlink="http://www.w3.org/1999/xlink" width="128" height="128"><defs><style type="text/css"></style></defs><path d="M513.4239921 975.48353739c-254.79102261 0-462.0699016-207.57532823-462.06990159-462.73399974 0-255.15996603 207.27887897-462.73399973 462.06990159-462.73399971 254.78843355 0 462.06731251 207.5740337 462.06731252 462.73399971 0 255.15867149-207.27887897 462.73399973-462.06731252 462.73399974z m0-871.01583614c-224.84058516 0-407.70188325 183.12150029-407.70188327 408.2818364 0 225.16033612 182.8612981 408.2883091 407.70188327 408.2883091 224.83411248 0 407.70058871-183.12797298 407.70058872-408.2883091 0-225.16033612-182.86647625-408.28183641-407.70058872-408.2818364z m0 680.48569332c-30.00221899 0-54.36931287-24.35155943-54.36931287-54.44698516V512.74953765c0-30.03976059 24.36709389-54.44439609 54.36931287-54.44439608 30.01904798 0 54.36801833 24.4046355 54.36801833 54.44439608v217.75687176c0 30.09542574-24.34897035 54.44698516-54.36801833 54.44698516z m0-435.51374349c-14.23474284 0-28.36980622-5.87720375-38.43095767-15.95906781-10.08056951-10.07409683-15.9383552-24.23375645-15.9383552-38.48403374 0-14.25286637 5.85778569-28.42547137 15.9383552-38.4995682 10.06115145-10.08186405 24.19621484-15.94482789 38.43095767-15.94482789 14.21403022 0 28.36721715 5.86296383 38.42966313 15.94482789 10.06115145 10.07409683 15.9383552 24.24670183 15.9383552 38.4995682 0 14.2502773-5.87720375 28.40993691-15.9383552 38.48403374-10.06244598 10.08186405-24.21563291 15.95906782-38.42966313 15.95906781z" p-id="1761"></path></svg>