<?xml version="1.0" standalone="no"?><!DOCTYPE svg PUBLIC "-//W3C//DTD SVG 1.1//EN" "http://www.w3.org/Graphics/SVG/1.1/DTD/svg11.dtd"><svg t="1520238527875" class="icon" style="" viewBox="0 0 1024 1024" version="1.1" xmlns="http://www.w3.org/2000/svg" p-id="1930" xmlns:xlink="http://www.w3.org/1999/xlink" width="128" height="128"><defs><style type="text/css"></style></defs><path d="M708.77857168 549.29857167L443.96 725.87857167c-27.91285752 18.56571416-50.82428584 6.35142832-50.82428584-27.23142919V332.19285752c0-33.59571416 22.91142832-45.81 50.82428584-27.18l264.81857167 176.56714248c27.91285752 18.56571416 27.91285752 49.10142832 1e-8 67.71857167zM512 923.42857168c227.22428584 0 411.42857168-184.20428584 411.42857168-411.42857168C923.42857168 284.77571416 739.22428584 100.57142832 512 100.57142832 284.77571416 100.57142832 100.57142832 284.77571416 100.57142832 512c0 227.22428584 184.20428584 411.42857168 411.42857168 411.42857168z m0 38.57142832C263.47142832 962 62 760.52857168 62 512S263.47142832 62 512 62s450 201.47142832 450 450-201.47142832 450-450 450z" p-id="1931"></path></svg>