<?xml version="1.0" standalone="no"?><!DOCTYPE svg PUBLIC "-//W3C//DTD SVG 1.1//EN" "http://www.w3.org/Graphics/SVG/1.1/DTD/svg11.dtd"><svg t="1516763663429" class="icon" style="" viewBox="0 0 1025 1024" version="1.1" xmlns="http://www.w3.org/2000/svg" p-id="3154" xmlns:xlink="http://www.w3.org/1999/xlink" width="128.125" height="128"><defs><style type="text/css"></style></defs><path d="M839.946 389.337c0-179.918-147.043-325.821-328.561-325.821-181.46 0-328.562 145.903-328.562 325.82 0 59.447 16.308 114.956 44.309 162.94h-0.351l284.574 407.317 284.69-407.317h-0.38c28.092-47.984 44.281-103.493 44.281-162.94m-328.532 162.88c-90.717 0-164.28-72.922-164.28-162.908 0-89.927 73.563-162.908 164.28-162.908 90.802 0 164.28 72.98 164.28 162.908 0 89.986-73.478 162.908-164.28 162.908" p-id="3155"></path></svg>