<?xml version="1.0" standalone="no"?><!DOCTYPE svg PUBLIC "-//W3C//DTD SVG 1.1//EN" "http://www.w3.org/Graphics/SVG/1.1/DTD/svg11.dtd"><svg t="1518318082480" class="icon" style="" viewBox="0 0 1024 1024" version="1.1" xmlns="http://www.w3.org/2000/svg" p-id="1899" xmlns:xlink="http://www.w3.org/1999/xlink" width="128" height="128"><defs><style type="text/css"></style></defs><path d="M916.34628267 309.58820921c-55.88732701 0-101.24942677 45.40634226-101.24942678 101.25059071 0 13.32884935 2.61034894 26.02432285 7.23725768 37.65213753l-159.11256178 63.59728812-106.62730525-213.25810348c33.22083101-16.45265351 56.00492089-50.8610651 56.00492089-90.49133966 0-55.84308338-45.36675669-101.24942677-101.25175466-101.24942677-55.88616306 0-101.24826169 45.40634226-101.2482617 101.24942677 0 39.63027456 22.77943296 74.03868615 56.00375581 90.49133966l-106.62963427 213.25810348-159.1509834-63.59728812c4.66533035-11.62781469 7.27567929-24.32328818 7.27567929-37.65213753 0-55.84424733-45.36559275-101.25059072-101.24942677-101.25059071-55.88732701 0-101.24942677 45.40634226-101.24942678 101.25059071 0 55.96300629 45.36209977 101.24942677 101.24942678 101.24942678 5.69573149 0 11.39146297-0.39353117 16.88693532-1.4239323l53.9464465 320.43961343c5.10194119 50.62471339 50.62471339 85.98435385 96.18823624 85.98435386l470.8909841 0c50.62471339 0 91.04554439-35.35847651 101.24942678-85.98435386L899.45934734 510.6631293c5.49547235 1.03040114 11.19236779 1.4239323 16.88693533 1.42393231 55.88499797 0 101.25059072-45.28642048 101.25059072-101.24942676C1017.59687339 354.99338752 972.23128064 309.58820921 916.34628267 309.58820921z" p-id="1900"></path></svg>