<?xml version="1.0" standalone="no"?><!DOCTYPE svg PUBLIC "-//W3C//DTD SVG 1.1//EN" "http://www.w3.org/Graphics/SVG/1.1/DTD/svg11.dtd"><svg t="1526868504117" class="icon" style="" viewBox="0 0 1024 1024" version="1.1" xmlns="http://www.w3.org/2000/svg" p-id="6640" xmlns:xlink="http://www.w3.org/1999/xlink" width="64" height="64"><defs><style type="text/css"></style></defs><path d="M949.8 901.9L711.7 664c52.8-63.4 84.7-144.8 84.7-233.7 0-201.8-163.7-365.4-365.7-365.4C228.8 64.9 65 228.5 65 430.3c0 201.8 163.7 365.4 365.7 365.4 89 0 170.5-31.8 233.9-84.6l238 237.9c6.5 6.5 15 9.8 23.5 9.8s17-3.2 23.5-9.8c13.2-13 13.2-34.1 0.2-47.1zM430.7 729.1c-164.9 0-299-134.1-299-298.8 0-164.8 134.2-298.8 299-298.8 164.9 0 299 134.1 299 298.8 0.1 164.8-134.1 298.8-299 298.8z" p-id="6641"></path></svg>