<?xml version="1.0" standalone="no"?><!DOCTYPE svg PUBLIC "-//W3C//DTD SVG 1.1//EN" "http://www.w3.org/Graphics/SVG/1.1/DTD/svg11.dtd"><svg t="1516627453847" class="icon" style="" viewBox="0 0 1024 1024" version="1.1" xmlns="http://www.w3.org/2000/svg" p-id="1141" xmlns:xlink="http://www.w3.org/1999/xlink" width="64" height="64"><defs><style type="text/css"></style></defs><path d="M912.27093333 343.19253333c-21.8784-51.6512-53.07626667-97.9968-92.94826666-137.86773333s-86.21653333-71.06986667-137.86773334-92.94826667c-53.46453333-22.65386667-110.29546667-34.04586667-168.80746666-34.04586666s-115.34293333 11.52106667-168.80746667 34.04586666c-51.6512 21.8784-97.9968 53.07626667-137.86773333 92.94826667-39.87093333 39.87093333-71.06986667 86.21653333-92.94826667 137.86773333-22.65386667 53.46453333-34.04586667 110.29546667-34.04586667 168.80746667s11.52106667 115.34293333 34.04586667 168.80746667c21.8784 51.6512 53.07626667 97.9968 92.94826667 137.86773333 39.87093333 39.87093333 86.21653333 71.06986667 137.86773333 92.94826667 53.46453333 22.65386667 110.29546667 34.04586667 168.80746667 34.04586666s115.34293333-11.52106667 168.80746666-34.04586666c51.6512-21.8784 97.9968-53.07626667 137.86773334-92.94826667 39.87093333-39.87093333 71.06986667-86.21653333 92.94826666-137.86773333 22.65386667-53.46453333 34.04586667-110.29546667 34.04586667-168.80746667s-11.52106667-115.34293333-34.04586667-168.80746667zM755.632 394.58453333l-298.9088 298.9088c-12.0384 12.0384-31.84533333 12.0384-43.8848 0l-152.75626667-152.75626666c-12.0384-12.0384-12.0384-31.84533333 0-43.8848 12.0384-12.0384 31.84533333-12.0384 43.8848 0l130.74773334 130.74773333 276.9024-276.9024c12.0384-12.0384 31.84533333-12.0384 43.8848 0 12.16853333 12.0384 12.16853333 31.7152 0.13013333 43.8848z" fill="" p-id="1142"></path></svg>