<?xml version="1.0" standalone="no"?><!DOCTYPE svg PUBLIC "-//W3C//DTD SVG 1.1//EN" "http://www.w3.org/Graphics/SVG/1.1/DTD/svg11.dtd"><svg t="1516625220336" class="icon" style="" viewBox="0 0 1024 1024" version="1.1" xmlns="http://www.w3.org/2000/svg" p-id="942" xmlns:xlink="http://www.w3.org/1999/xlink" width="64" height="64"><defs><style type="text/css"></style></defs><path d="M863.2109375 634.6953125l0 183.8671875c0 31.640625-26.71875 58.18359375-58.18359375 58.18359375l-614.8828125 1.0546875c-31.46484375 0-57.12890625-25.6640625-57.12890625-57.3046875l1.0546875-614.8828125c0-31.46484375 26.71875-58.18359375 58.18359375-58.18359375l340.13671875 0L532.390625 79.75390625 192.25390625 79.75390625c-71.89453125 0-125.68359375 72.7734375-125.68359375 137.8125l0 602.9296875c0 68.203125 55.37109375 123.75 123.75 123.75l602.9296875 0c72.0703125 0 137.63671875-59.94140625 137.63671875-125.68359375L930.88671875 634.6953125 863.2109375 634.6953125 863.2109375 634.6953125zM703.77734375 115.4375l253.65234375 254.1796875L703.77734375 623.62109375l0-145.1953125c0 0-251.71875-27.94921875-398.671875 181.58203125 0 0 46.23046875-399.375 398.671875-399.375L703.77734375 115.4375 703.77734375 115.4375z" p-id="943"></path></svg>