<?xml version="1.0" standalone="no"?><!DOCTYPE svg PUBLIC "-//W3C//DTD SVG 1.1//EN" "http://www.w3.org/Graphics/SVG/1.1/DTD/svg11.dtd"><svg t="1516672420658" class="icon" style="" viewBox="0 0 1024 1024" version="1.1" xmlns="http://www.w3.org/2000/svg" p-id="1137" xmlns:xlink="http://www.w3.org/1999/xlink" width="128" height="128"><defs><style type="text/css"></style></defs><path d="M737 493.25000029H287c-11.25 0-18.74999971 7.49999971-18.74999971 18.74999971s7.49999971 18.74999971 18.74999971 18.74999971h450c11.25 0 18.74999971-7.49999971 18.74999971-18.74999971s-7.49999971-18.74999971-18.74999971-18.74999971zM512 62C262.62500029 62 62 262.62500029 62 512s200.62500029 450 450 450 450-200.62500029 450-450S761.37499971 62 512 62z m0 862.49999971C285.12500029 924.49999971 99.50000029 738.87499971 99.50000029 512S285.12500029 99.50000029 512 99.50000029s412.49999971 185.625 412.49999971 412.49999971-185.625 412.49999971-412.49999971 412.49999971z" p-id="1138"></path></svg>