<?xml version="1.0" standalone="no"?><!DOCTYPE svg PUBLIC "-//W3C//DTD SVG 1.1//EN" "http://www.w3.org/Graphics/SVG/1.1/DTD/svg11.dtd"><svg t="1518006928519" class="icon" style="" viewBox="0 0 1024 1024" version="1.1" xmlns="http://www.w3.org/2000/svg" p-id="5566" xmlns:xlink="http://www.w3.org/1999/xlink" width="64" height="64"><defs><style type="text/css"></style></defs><path d="M512 960.16002C264.886903 960.16002 63.83998 759.112074 63.83998 512S264.886903 63.83998 512 63.83998s448.16002 201.046922 448.16002 448.16002S759.112074 960.16002 512 960.16002zM512 116.564809c-218.038922 0-395.435191 177.396269-395.435191 395.435191s177.396269 395.435191 395.435191 395.435191 395.435191-177.396269 395.435191-395.435191S730.037898 116.564809 512 116.564809zM614.408391 650.53724l-2.488681-3.591805-7.813966-3.481288-3.591805 0c-4.175089 0-8.743128 1.103124-23.032576 8.113795l-22.89136 15.454994c-6.269797 3.970428-13.218046 7.309476-20.701484 9.925047-7.877411 2.788509-16.195867 4.993734-24.687262 6.554276-5.875824 1.086751-10.570753 1.859347-15.659655 1.591241-7.104815-0.850367-9.106402-3.638877-9.830903-4.678556-2.12643-2.977821-2.867304-8.55484-2.111081-15.7231 1.118474-10.508331 4.111644-24.923646 8.885368-42.85197 4.91494-18.35402 9.705036-34.297131 14.289448-47.783283 4.599761-13.469779 10.020214-27.538193 16.274662-42.300408 6.160303-14.588253 11.106965-25.160029 14.69877-31.461549 3.292999-5.828752 8.239662-12.288884 14.745842-19.298532 6.160303-6.727215 20.590967-22.481014 12.272511-37.620829-4.52199-8.160867-12.461823-13.060457-24.923646-13.848403-6.081509 0-12.808724 1.323135-20.543895 4.0175-8.066723 2.820232-13.186324 4.963035-15.186887 6.096858-2.064009 1.118474-5.26184 3.182482-19.361977 14.730493-14.005992 11.422144-17.960047 16.006556-20.039405 19.992333-2.032286 3.844561-3.608178 9.263991-4.773723 23.190165-0.441045 5.183046-2.426259 15.502066-9.594519 35.762505l-20.307512 65.049528-16.353456 44.884256c-4.222161 15.329127-5.813403 28.609595-4.867868 40.551578 0.88209 11.610432 3.214205 22.450315 6.931876 32.1707 4.096295 10.791787 9.783831 19.59836 16.873296 26.152637 7.766894 7.215332 17.361413 11.7056 27.948539 13.233396 2.882654 0.51984 6.065136 0.803295 9.531074 0.803295 8.712429 0 18.857487-1.74883 31.052227-5.372358 15.124466-4.505617 27.601638-9.042957 38.078247-13.848403 10.523681-4.742001 20.418029-10.271948 29.476335-16.432251 8.207939-5.655813 16.699334-11.720949 25.411763-18.258852 11.169387-8.397251 18.243503-16.999163 21.694091-26.387997C616.708783 667.804509 620.001783 658.635685 614.408391 650.53724zM483.34845 373.872083c5.251607 4.391007 11.774161 6.791683 19.562545 7.245008 9.149381 0.905626 21.875217-4.573155 38.131459-16.48444 16.213263-11.910261 24.819269-21.37482 25.724895-28.485775 0.905626-7.108908-1.49505-18.068518-7.202029-32.967856-5.749958-14.854313-11.094686-24.365944-16.122189-28.485775-5.070482-4.121877-11.004635-6.386454-17.841344-6.839779-13.314237-0.453325-25.181519 5.615904-35.732829 18.160615-10.506285 12.589736-17.254989 22.687722-20.24202 30.206976-2.989077 7.562233-4.439102 12.951987-4.439102 16.122189-0.453325 5.523807 1.1328 12.725836 4.801353 21.645996C473.655693 362.910427 478.094796 369.56908 483.34845 373.872083z" p-id="5567"></path></svg>